<?xml version="1.0" encoding="utf-8"?>
<!-- Generator: Adobe Illustrator 26.0.0, SVG Export Plug-In . SVG Version: 6.00 Build 0)  -->
<svg version="1.1" id="Layer_1" xmlns="http://www.w3.org/2000/svg" xmlns:xlink="http://www.w3.org/1999/xlink" x="0px" y="0px"
	 viewBox="0 0 261.2 67.1" style="enable-background:new 0 0 261.2 67.1;" xml:space="preserve">
<style type="text/css">
	.st0{fill:#253148;}
	.st1{fill:#DD4B37;}
</style>
<g>
	<path class="st0" d="M53,6.2h18.4v5H65v17.6h-5.5V11.1H53V6.2z"/>
	<path class="st0" d="M78.6,28.9h-5.1V4.7h5.1v11h0.2c1-3.4,3.1-5.2,6-5.2c3.4,0,5.1,2.4,5.1,6.3v12.1h-5.1V18.3
		c0-1.8-0.9-3.1-2.7-3.1c-2.2,0-3.5,1.5-3.5,3.8V28.9z"/>
	<path class="st0" d="M92.5,20.2c0-6.1,3.3-9.8,9.1-9.8c5.5,0,8.1,3.2,8.1,8.1c0,0.7,0,1.5-0.1,2.4H97.5c0.2,2.8,1.6,4.1,4,4.1
		s3.1-1.1,3.5-2.5l4.3,1.1c-0.8,3.1-2.8,5.5-8,5.5C96.1,29.3,92.5,26.4,92.5,20.2z M97.6,18.5h7.4c-0.1-2.7-1.3-4.1-3.5-4.1
		C99.1,14.3,97.9,15.5,97.6,18.5z"/>
	<path class="st0" d="M133,23.9h-8.8l-1.5,5h-5.7L125,6.2h7.4l7.9,22.7h-5.8L133,23.9z M125.5,19.9h6.3l-0.9-2.7
		c-0.6-2-1.3-4.1-1.8-6.1h-0.9c-0.6,2-1.1,4.1-1.8,6.1L125.5,19.9z"/>
	<path class="st0" d="M149.7,15c-2.4,0-3.9,1.5-3.9,4.9c0,3.1,1.3,5,4,5c2.3,0,3.1-1.5,3.5-3.4l4.8,1.1c-0.6,4.1-3.1,6.7-8.2,6.7
		c-5.6,0-9.2-3.1-9.2-9.2s3.5-9.7,9.1-9.7c5.2,0,7.6,2.5,8.2,6.8l-4.8,0.9C152.6,16.3,151.8,15,149.7,15z"/>
	<path class="st0" d="M168.8,15c-2.4,0-3.9,1.5-3.9,4.9c0,3.1,1.3,5,4,5c2.3,0,3.1-1.5,3.5-3.4l4.8,1.1c-0.6,4.1-3.1,6.7-8.2,6.7
		c-5.6,0-9.2-3.1-9.2-9.2s3.5-9.7,9.1-9.7c5.2,0,7.6,2.5,8.2,6.8l-4.8,0.9C171.9,16.3,170.9,15,168.8,15z"/>
	<path class="st0" d="M178.8,20.2c0-6.1,3.3-9.8,9.1-9.8c5.5,0,8.1,3.2,8.1,8.1c0,0.7,0,1.5-0.1,2.4h-12.2c0.2,2.8,1.6,4.1,4,4.1
		c2.4,0,3.1-1.1,3.5-2.5l4.3,1.1c-0.8,3.1-2.8,5.5-8,5.5C182.6,29.3,178.8,26.4,178.8,20.2z M183.9,18.5h7.4
		c-0.1-2.7-1.3-4.1-3.5-4.1C185.4,14.3,184.2,15.5,183.9,18.5z"/>
	<path class="st0" d="M197.7,23.6l4.6-1c0.5,1.9,1.7,3,3.9,3c1.7,0,2.6-0.6,2.6-1.7c0-1-0.7-1.7-4-2.3c-4.9-1-6.5-2.7-6.5-5.7
		c0-3.4,2.4-5.5,7.5-5.5c5.2,0,6.8,2,7.5,5.2l-4.6,1c-0.5-1.8-1.3-2.6-3.1-2.6c-1.7,0-2.5,0.6-2.5,1.6s0.5,1.7,3.6,2.3
		c5.6,1.1,6.9,3.1,6.9,5.8c0,3.5-2.3,5.6-7.7,5.6C200,29.3,198.2,26.9,197.7,23.6z"/>
	<path class="st0" d="M215.3,23.6l4.6-1c0.5,1.9,1.7,3,3.9,3c1.7,0,2.6-0.6,2.6-1.7c0-1-0.7-1.7-4-2.3c-4.9-1-6.5-2.7-6.5-5.7
		c0-3.4,2.4-5.5,7.5-5.5c5.2,0,6.8,2,7.5,5.2l-4.6,1c-0.5-1.8-1.3-2.6-3.1-2.6c-1.7,0-2.5,0.6-2.5,1.6s0.5,1.7,3.6,2.3
		c5.6,1.1,6.9,3.1,6.9,5.8c0,3.5-2.3,5.6-7.7,5.6C217.6,29.3,215.8,26.9,215.3,23.6z"/>
	<path class="st0" d="M68.1,52h-8.8l-1.5,5h-5.7l7.9-22.7h7.4L75.3,57h-5.8L68.1,52z M60.6,48h6.3L66,45.3c-0.6-2-1.3-4.1-1.8-6.1
		h-0.9c-0.6,2-1.1,4.1-1.8,6.1L60.6,48z"/>
	<path class="st0" d="M84.1,63.6c-6.8,0-8.8-1.5-8.8-3.5c0-1.6,1.8-2.7,4.2-3.2v-0.2c-1.8-0.2-2.7-1.1-2.7-2.4c0-1,0.8-1.8,2.3-2.6
		l1.4-0.7c-2.7-0.9-4.1-2.7-4.1-5.6c0-4,3.1-6.3,8.1-6.3h9V43h-1.9c-0.9,0-1.9,0-3.4-0.2v0.5c2.3,0.5,4.1,1.3,4.1,3.3
		c0,3-2.8,4.9-7.9,4.9c-1,0-2.2-0.1-3-0.2l-0.2,0.5c-0.2,0.3-0.3,0.7-0.3,1c0,0.6,0.5,0.9,1.6,0.9c1.9,0,4-0.1,5.8-0.1
		c4,0,5.7,1.7,5.7,4.7C93.6,61.8,91.3,63.6,84.1,63.6z M89.8,58.1c0-0.9-0.6-1.5-2-1.5h-6c-1.6,0-2.5,0.7-2.5,1.6
		c0,1.1,1,1.7,5.2,1.7C88.7,60.1,89.8,59.4,89.8,58.1z M80.8,45.6c0,1.5,0.9,2.5,3.4,2.5c2.6,0,3.5-1,3.5-2.5c0-1.5-1-2.5-3.5-2.5
		C81.6,43,80.8,44.1,80.8,45.6z"/>
	<path class="st0" d="M94.4,48.4c0-6.1,3.3-9.8,9.1-9.8c5.5,0,8.1,3.2,8.1,8.1c0,0.7,0,1.5-0.1,2.4H99.5c0.2,2.8,1.6,4.1,4,4.1
		s3.1-1.1,3.5-2.5l4.3,1.1c-0.8,3.1-2.8,5.5-8,5.5C98.2,57.4,94.4,54.5,94.4,48.4z M99.6,46.6h7.4c-0.1-2.7-1.3-4.1-3.5-4.1
		C101.2,42.4,99.8,43.7,99.6,46.6z"/>
	<path class="st0" d="M119.6,57h-5.1V39.1h5v4.8h0.3c1-3.5,3.2-5.2,6-5.2c3.4,0,5.2,2.4,5.2,6.3V57H126V46.3c0-1.8-0.8-3.1-2.7-3.1
		c-2.2,0-3.5,1.5-3.5,3.8L119.6,57L119.6,57z"/>
	<path class="st0" d="M142.6,43.1c-2.4,0-3.9,1.5-3.9,4.9c0,3.1,1.3,5,4,5c2.3,0,3.1-1.5,3.5-3.4l4.8,1.1c-0.6,4.1-3.1,6.7-8.2,6.7
		c-5.6,0-9.2-3.1-9.2-9.2s3.5-9.7,9.1-9.7c5.2,0,7.6,2.5,8.2,6.8l-4.8,0.9C145.7,44.5,144.9,43.1,142.6,43.1z"/>
	<path class="st0" d="M151.4,63l0.7-4.3c0.7,0.2,1.5,0.2,2.3,0.2c1.8,0,2.7-0.3,3.5-2.3l-6.5-17.5h5.6l1.8,6.5
		c0.6,1.9,1.1,4.3,1.7,6.5h0.6c0.6-2.3,1.1-4.4,1.6-6.4l1.7-6.7h5.6l-7.1,18c-1.7,4.3-4,6.3-8.5,6.3C153.1,63.2,152.4,63.1,151.4,63
		z"/>
</g>
<g>
	<g>
		<path class="st1" d="M31.3,44.8H9.7c-5.1,0-9.2-4.1-9.2-9.2V14.1c0-5.1,4.1-9.2,9.2-9.2h21.5c5.1,0,9.2,4.1,9.2,9.2v21.5
			C40.5,40.7,36.3,44.8,31.3,44.8z M9.7,10.3c-2,0-3.8,1.7-3.8,3.8v21.5c0,2,1.7,3.8,3.8,3.8h21.5c2,0,3.8-1.7,3.8-3.8V14.1
			c0-2-1.7-3.8-3.8-3.8H9.7z"/>
		<polygon class="st0" points="17.9,36.5 14.2,32.4 21.7,25.2 14.2,18.1 17.9,14.1 29.7,25.2 		"/>
	</g>
</g>
</svg>
